# xmcd CD database file
#
# Track frame offsets:
#	150
#	32922
#	67907
#	96040
#	169100
#
# Disc length: 2544 seconds
#
# Revision: 0
# Processed by: cddbd v1.4PL0 Copyright (c) Steve Scherf et al.
# Submitted via: CDex 1.51
#
DISCID=3709ee05
DTITLE=Tete Montoliú - Interpreta boleros clásicos
DYEAR=1900
DGENRE=Jazz
TTITLE0=Frenesí - Contigo en la distancia - María Elena
TTITLE1=Tres palabras - Amor mío - Siempre en mi corazón
TTITLE2=Noche de ronda - Solamente una vez - Vereda tropical
TTITLE3=Perfidia - No me platiques más - Bésame mucho - Amor amor amor - La puerta - María la O
TTITLE4=Por el amor de una mujer
EXTD=
EXTT0=
EXTT1=
EXTT2=
EXTT3=
EXTT4=
PLAYORDER=
